<svg width="680" height="95" viewBox="0 0 680 95" fill="none" xmlns="http://www.w3.org/2000/svg">
<path d="M176.545 49.7118C176.545 56.8145 174.36 62.6506 169.989 67.2202C165.667 71.7401 159.682 74 152.033 74H130.129V69.3063H136.238V30.2663H130.129V25.5726H151.81C159.707 25.5726 165.792 27.8574 170.063 32.4269C174.384 36.9468 176.545 42.7084 176.545 49.7118ZM170.734 49.7863C170.734 43.9253 169.095 39.2068 165.816 35.6306C162.588 32.0544 157.894 30.2663 151.735 30.2663H141.677V69.3063H151.735C157.894 69.3063 162.588 67.5678 165.816 64.091C169.095 60.5645 170.734 55.7963 170.734 49.7863ZM187.354 32.2779V25.4981H193.016V32.2779H187.354ZM198.902 74H182.064V69.7533H187.875V45.0926H181.915V40.8458H193.091V69.7533H198.902V74ZM230.139 64.389C230.139 67.6175 228.773 70.1506 226.042 71.9884C223.359 73.8262 220.032 74.745 216.058 74.745C213.724 74.745 211.389 74.447 209.055 73.851C206.77 73.2053 204.907 72.4106 203.467 71.4669L204.51 63.942L208.682 64.389L208.459 68.7847C210.744 69.8775 213.202 70.4238 215.835 70.4238C218.169 70.4238 220.23 69.9768 222.018 69.0828C223.856 68.139 224.775 66.7235 224.775 64.836C224.775 62.9983 224.08 61.7069 222.689 60.9618C221.298 60.2168 219.56 59.6705 217.474 59.3228C215.437 58.9751 213.376 58.5529 211.29 58.0562C209.204 57.5595 207.465 56.7151 206.075 55.5231C204.684 54.2813 203.989 52.3691 203.989 49.7863C203.989 46.2598 205.28 43.7763 207.863 42.3359C210.446 40.8955 213.252 40.1753 216.282 40.1753C218.566 40.1753 220.702 40.4733 222.689 41.0694C224.725 41.6654 226.439 42.3856 227.83 43.23L228.649 50.9784L224.328 51.4999L223.509 46.1356C221.422 45.0429 219.162 44.4965 216.729 44.4965C214.643 44.4965 212.929 44.8939 211.588 45.6886C210.247 46.4833 209.576 47.725 209.576 49.4138C209.576 51.1522 210.272 52.3939 211.662 53.139C213.053 53.8343 214.767 54.3559 216.803 54.7035C218.84 55.0016 220.876 55.3989 222.912 55.8956C224.949 56.3923 226.662 57.2863 228.053 58.5777C229.444 59.8195 230.139 61.7566 230.139 64.389ZM271.226 56.4916C271.226 59.4221 270.705 62.3029 269.662 65.1341C268.668 67.9155 267.054 70.2251 264.819 72.0629C262.634 73.851 259.728 74.745 256.102 74.745C251.086 74.745 247.435 72.8824 245.15 69.1573V85.6226H252.824V89.8693H234.049V85.6226H239.935V45.0926H233.975V40.8458H245.15V47.7747C246.143 45.7879 247.584 44.0247 249.471 42.4849C251.359 40.9452 253.842 40.1753 256.922 40.1753C261.193 40.1753 264.645 41.6157 267.278 44.4965C269.91 47.3773 271.226 51.3757 271.226 56.4916ZM265.713 56.9386C265.713 52.9651 264.745 49.9353 262.807 47.8492C260.87 45.7134 258.461 44.6455 255.581 44.6455C252.6 44.6455 250.142 45.8376 248.205 48.2217C246.268 50.5562 245.249 52.99 245.15 55.5231V60.4403C245.15 63.2218 246.119 65.5562 248.056 67.4437C249.993 69.3311 252.327 70.2748 255.059 70.2748C258.784 70.2748 261.491 68.9337 263.18 66.2516C264.869 63.5695 265.713 60.4652 265.713 56.9386ZM280.078 43.379C281.816 42.2366 283.654 41.417 285.591 40.9203C287.528 40.4237 289.589 40.1753 291.775 40.1753C299.672 40.1753 303.621 43.8757 303.621 51.2764V67.0712C303.621 69.4553 304.565 70.6473 306.452 70.6473C307.296 70.6473 308.042 70.4983 308.687 70.2003L308.762 73.6275C307.421 74.3725 305.98 74.745 304.441 74.745C300.517 74.745 298.505 72.5099 298.406 68.0397V67.8907C297.363 69.6788 295.873 71.2682 293.935 72.6589C292.048 74.0497 289.763 74.745 287.081 74.745C284.896 74.745 282.661 74.0745 280.376 72.7334C278.141 71.3924 277.023 68.9586 277.023 65.4321C277.023 61.2599 278.662 58.5281 281.94 57.2367C285.268 55.8956 288.795 55.2251 292.52 55.2251C293.513 55.2251 294.507 55.2499 295.5 55.2996C296.543 55.3492 297.512 55.4237 298.406 55.5231V52.5429C298.406 50.1588 297.884 48.2217 296.841 46.7316C295.848 45.2416 293.861 44.4965 290.881 44.4965C288.447 44.4965 286.311 44.9435 284.474 45.8376L283.207 51.5744L278.886 51.0529L280.078 43.379ZM298.406 61.5579V59.0248C297.462 58.9751 296.469 58.9006 295.426 58.8012C294.382 58.7019 293.315 58.6522 292.222 58.6522C289.738 58.6522 287.478 59.0496 285.442 59.8443C283.455 60.5893 282.462 62.2532 282.462 64.836C282.462 66.9718 283.132 68.4371 284.474 69.2318C285.815 70.0265 287.205 70.4238 288.646 70.4238C290.93 70.4238 293.066 69.6291 295.053 68.0397C297.089 66.4503 298.207 64.2897 298.406 61.5579ZM337.326 65.0596C336.432 71.5165 332.931 74.745 326.821 74.745C323.493 74.745 320.935 73.8013 319.147 71.9139C317.409 70.0265 316.54 67.4685 316.54 64.24V45.0181H311.176V40.8458H316.54V30.1918H321.755V40.8458H334.719V45.0181H321.755V63.5695C321.755 65.5562 322.177 67.1705 323.022 68.4122C323.916 69.6043 325.356 70.2003 327.343 70.2003C328.634 70.2003 329.826 69.803 330.919 69.0083C332.061 68.2135 332.881 66.4751 333.378 63.793L337.326 65.0596ZM369.593 62.8244C369.146 65.7053 367.83 68.4122 365.645 70.9453C363.509 73.4785 360.156 74.745 355.587 74.745C351.017 74.745 347.366 73.2798 344.635 70.3493C341.903 67.3692 340.537 63.2218 340.537 57.9072C340.537 53.3376 341.828 49.2399 344.411 45.6141C346.994 41.9882 350.868 40.1753 356.034 40.1753C358.219 40.1753 360.231 40.4237 362.069 40.9203C363.906 41.417 365.67 42.3111 367.358 43.6025L368.625 51.5744L364.304 52.0959L363.037 46.5081C361.05 45.2664 358.691 44.6455 355.959 44.6455C352.433 44.6455 349.9 45.9121 348.36 48.4452C346.82 50.9784 346.05 54.033 346.05 57.6092C346.05 61.5827 346.919 64.687 348.658 66.9221C350.396 69.1573 352.905 70.2748 356.183 70.2748C361.15 70.2748 364.13 67.4685 365.123 61.8559L369.593 62.8244ZM413.172 74H396.334V69.7533H402.145V54.331C402.145 50.7548 401.4 48.2465 399.91 46.8061C398.47 45.3161 396.607 44.571 394.322 44.571C391.441 44.571 389.082 45.5644 387.244 47.5512C385.456 49.4883 384.513 51.6737 384.413 54.1075V69.7533H390.15V74H373.387V69.7533H379.123V26.9882H373.387V22.7414H384.413V46.8061C386.847 42.3856 390.721 40.1753 396.036 40.1753C399.264 40.1753 401.971 41.1687 404.157 43.1555C406.342 45.1422 407.435 48.3459 407.435 52.7664V69.7533H413.172V74Z" fill="black"/>
<path d="M483.37 41.3674L476.218 41.9634L474.728 32.6504H465.266V66.9221H473.387V74H449.173V66.9221H456.996V32.6504H447.46L445.97 41.9634L438.892 41.3674L440.382 25.5726H481.88L483.37 41.3674ZM491.914 33.619V24.8275H500.035V33.619H491.914ZM505.25 74H487.369V67.8907H492.361V46.7316H487.071V40.5478H500.258V67.8907H505.25V74ZM539.819 62.0049C539.472 64.985 538.155 67.8659 535.871 70.6473C533.586 73.3791 529.91 74.745 524.844 74.745C520.076 74.745 516.177 73.3046 513.147 70.4238C510.167 67.543 508.677 63.346 508.677 57.8327C508.677 52.4188 510.216 48.0727 513.296 44.7945C516.425 41.5164 520.498 39.8773 525.515 39.8773C527.501 39.8773 529.488 40.1256 531.475 40.6223C533.462 41.119 535.424 41.9386 537.361 43.081L538.702 52.4684L532.294 53.139L531.177 47.6257C529.339 46.7316 527.402 46.2846 525.366 46.2846C519.803 46.2846 517.021 50.0098 517.021 57.4602C517.021 64.7119 519.877 68.3377 525.589 68.3377C529.761 68.3377 532.27 65.8046 533.114 60.7383L539.819 62.0049ZM580.781 74H564.092V67.8907H567.967L560.963 59.5463H555.599V67.8907H559.324V74H542.635V67.8907H547.627V28.8507H542.337V22.7414H555.599V53.8095H561.336L567.221 46.7316H562.826V40.5478H579.142V46.7316H574.97L567.072 55.9701L577.205 67.8907H580.781V74ZM614.699 63.793C614.401 66.7235 612.961 69.2814 610.378 71.4669C607.795 73.6523 604.244 74.745 599.724 74.745C594.856 74.745 590.858 73.3295 587.729 70.4983C584.599 67.6175 583.035 63.3956 583.035 57.8327C583.035 52.7168 584.45 48.4452 587.282 45.0181C590.162 41.5909 594.161 39.8773 599.277 39.8773C603.896 39.8773 607.547 41.268 610.229 44.0495C612.961 46.7813 614.351 50.2581 614.401 54.48C614.401 55.8708 614.252 57.3608 613.954 58.9502H591.379C591.826 65.2086 594.806 68.3377 600.32 68.3377C602.903 68.3377 604.74 67.7169 605.833 66.4751C606.975 65.2334 607.72 63.9172 608.068 62.5264L614.699 63.793ZM606.206 54.033C606.404 52.0462 605.932 50.1836 604.79 48.4452C603.697 46.6571 601.835 45.7631 599.202 45.7631C596.818 45.7631 595.005 46.5578 593.763 48.1472C592.522 49.7366 591.752 51.6986 591.454 54.033H606.206ZM645.733 64.1655C644.789 71.2185 640.865 74.745 633.961 74.745C630.385 74.745 627.529 73.8013 625.393 71.9139C623.307 70.0265 622.264 67.394 622.264 64.0165V46.4336H617.347V40.5478H622.264V30.1918H630.236V40.5478H642.678V46.4336H630.236V62.7499C630.236 66.2764 631.776 68.0397 634.855 68.0397C635.7 68.0397 636.643 67.7417 637.686 67.1457C638.729 66.5 639.45 64.8857 639.847 62.3029L645.733 64.1655ZM676.853 64.0165C676.853 67.4933 675.412 70.1506 672.531 71.9884C669.7 73.8262 666.074 74.745 661.654 74.745C659.27 74.745 656.861 74.4719 654.427 73.9255C652.043 73.3791 649.882 72.5596 647.945 71.4669L649.137 62.8244L655.395 63.4205L655.321 67.7417C656.265 68.139 657.258 68.4122 658.301 68.5612C659.394 68.7102 660.362 68.7847 661.207 68.7847C663.243 68.7847 665.006 68.4371 666.496 67.7417C668.036 66.9967 668.806 65.9039 668.806 64.4635C668.806 63.0728 668.111 62.0794 666.72 61.4834C665.379 60.8873 663.69 60.4403 661.654 60.1423C659.617 59.7946 657.581 59.3476 655.544 58.8012C653.508 58.2052 651.794 57.2615 650.404 55.9701C649.063 54.629 648.392 52.6423 648.392 50.0098C648.392 46.1356 649.857 43.4783 652.788 42.0379C655.768 40.5975 658.897 39.8773 662.175 39.8773C666.496 39.8773 670.569 40.8955 674.394 42.9319L675.213 51.2019L668.955 51.9469L668.285 46.9552C666.347 46.2101 664.386 45.8376 662.399 45.8376C660.859 45.8376 659.543 46.1604 658.45 46.8061C657.407 47.4022 656.886 48.3707 656.886 49.7118C656.886 51.1025 657.556 52.0711 658.897 52.6174C660.238 53.1638 661.902 53.6108 663.889 53.9585C665.876 54.2565 667.862 54.7035 669.849 55.2996C671.836 55.8459 673.5 56.7896 674.841 58.1307C676.182 59.4221 676.853 61.384 676.853 64.0165Z" fill="black"/>
<rect x="33.3721" y="8.86157" width="32.9085" height="46.3896" transform="rotate(0.0597011 33.3721 8.86157)" fill="#F9B200"/>
<rect x="52.7118" y="19.0376" width="32.9085" height="46.3896" transform="rotate(6.28711 52.7118 19.0376)" fill="#00CDFB"/>
<path d="M64.6677 5.44141C66.8177 5.44165 68.5748 7.19861 68.575 9.34863V18.5908L84.0496 20.2139H84.0535C84.8817 20.3071 85.6473 20.6502 86.2546 21.1973L86.3015 21.1514L86.6921 21.6357C87.3433 22.4434 87.6415 23.4602 87.5378 24.4971V24.5L82.9832 67.8027V67.8066C82.8666 68.8425 82.3596 69.7811 81.5505 70.4336L81.5496 70.4326C80.8467 71.0044 79.9869 71.3057 79.1013 71.3057C78.9478 71.3057 78.8079 71.2907 78.6931 71.2803H78.6863L48.7126 68.1318H48.7097C46.5753 67.8975 45.0135 65.9727 45.2351 63.835V63.834L45.9744 56.793H34.5261C32.376 56.7928 30.6189 55.0359 30.6189 52.8857V9.34863C30.6191 7.19858 32.3761 5.44159 34.5261 5.44141H64.6677ZM53.7195 20.3857C53.5893 20.3707 53.4486 20.408 53.325 20.5059C53.2079 20.6071 53.1384 20.7337 53.1208 20.8818L53.1218 20.8828L48.5671 64.1855V64.1875C48.5342 64.4898 48.7536 64.7657 49.0662 64.7998H49.0652L79.0203 67.9463H79.0212C79.183 67.9587 79.3289 67.9149 79.4421 67.8232C79.5338 67.749 79.5942 67.6615 79.6267 67.5605L79.6404 67.4404L84.1951 24.1377V24.1318C84.21 24.0016 84.172 23.862 84.074 23.7383C83.9719 23.6204 83.8448 23.5509 83.6951 23.5342V23.5332L53.7244 20.3867L53.7195 20.3857ZM34.5261 8.79102C34.2208 8.79121 33.9687 9.04331 33.9685 9.34863V52.8857C33.9685 53.1912 34.2207 53.4432 34.5261 53.4434H46.3259L49.7781 20.543L49.7791 20.5391C49.8956 19.5033 50.4018 18.5646 51.2107 17.9121C52.0185 17.2607 53.0359 16.9617 54.073 17.0654H54.0759L65.2253 18.2393V9.34863C65.2252 9.04335 64.973 8.79126 64.6677 8.79102H34.5261Z" fill="black" stroke="black" stroke-width="1.11678"/>
<rect x="10.0632" y="40.6008" width="32.9085" height="46.3896" transform="rotate(-20.6028 10.0632 40.6008)" fill="#FA005D"/>
<rect x="31.7497" y="43.2981" width="32.9085" height="46.3896" transform="rotate(-14.3754 31.7497 43.2981)" fill="#00BC7A"/>
<path d="M38.1389 26.3576C40.1507 25.5992 42.4146 26.6231 43.1735 28.6348L46.4347 37.2825L61.4866 33.3407L61.4903 33.3393C62.2981 33.1343 63.1356 33.1852 63.8969 33.4828L63.9245 33.4233L64.4609 33.7386C65.3552 34.2646 65.993 35.1107 66.2619 36.1175L66.2629 36.1202L77.2812 78.2447L77.2826 78.2484C77.539 79.2588 77.3958 80.3159 76.869 81.2119L76.8678 81.2113C76.4119 81.9943 75.7137 82.5796 74.8851 82.8921C74.7415 82.9462 74.6052 82.9816 74.4942 83.0123L74.4878 83.0148L45.3312 90.6454L45.3285 90.6465C43.2487 91.1804 41.1082 89.9305 40.5612 87.8521L40.5608 87.8511L38.768 81.0022L28.0562 85.0419C26.0443 85.8004 23.7803 84.7765 23.0216 82.7647L7.65895 42.0281C6.90045 40.0163 7.92444 37.7523 9.93612 36.9935L38.1389 26.3576ZM33.1682 44.2039C33.0411 44.2358 32.9226 44.3203 32.8414 44.4555C32.7676 44.5915 32.7473 44.7345 32.7831 44.8793L32.7844 44.8799L43.8026 87.0043L43.8033 87.0062C43.8791 87.3007 44.1818 87.4814 44.4863 87.403L44.4854 87.4033L73.6239 79.7774L73.6248 79.777C73.7806 79.7316 73.9016 79.6391 73.9752 79.5134C74.0347 79.4116 74.0604 79.3084 74.0552 79.2025L74.0256 79.0852L63.0073 36.9608L63.0053 36.9553C62.9733 36.8281 62.8885 36.711 62.7531 36.6298C62.616 36.5555 62.4726 36.5353 62.3265 36.5725L62.3262 36.5716L33.1731 44.2031L33.1682 44.2039ZM11.1181 40.1276C10.8325 40.2355 10.6855 40.5604 10.7931 40.8461L26.1557 81.5827C26.2635 81.8685 26.5884 82.0153 26.8742 81.9077L37.915 77.744L29.5358 45.7418L29.5353 45.7378C29.2789 44.7275 29.4213 43.6706 29.9479 42.7746C30.4739 41.8801 31.3203 41.2414 32.3273 40.9724L32.3301 40.9714L43.1765 38.1355L40.0393 29.8167C39.9314 29.5312 39.6065 29.3843 39.3208 29.4918L11.1181 40.1276Z" fill="black" stroke="black" stroke-width="1.11678"/>
</svg>
